<?xml version="1.0" encoding="UTF-8"?>
<svg xmlns="http://www.w3.org/2000/svg" viewBox="0 0 16 16" width="16" height="16" fill="none"><g id="icon">
<path id="Vector" d="M6 12V3.33333L14 2V10.6667" stroke="#475569" stroke-width="1.33333" stroke-linecap="round" stroke-linejoin="round" />
<path id="Vector_2" d="M4 14C5.10457 14 6 13.1046 6 12C6 10.8954 5.10457 10 4 10C2.89543 10 2 10.8954 2 12C2 13.1046 2.89543 14 4 14Z" stroke="#475569" stroke-width="1.33333" stroke-linecap="round" stroke-linejoin="round" />
<path id="Vector_3" d="M12 12.6666C13.1046 12.6666 14 11.7712 14 10.6666C14 9.56206 13.1046 8.66663 12 8.66663C10.8954 8.66663 10 9.56206 10 10.6666C10 11.7712 10.8954 12.6666 12 12.6666Z" stroke="#475569" stroke-width="1.33333" stroke-linecap="round" stroke-linejoin="round" />
</g>
</svg>
